Coordinates
version=1
nRows=7
nColumns=40
inDegrees=yes

Units are S.I. units (second, meters, Newtons, ...)
If the header above contains a line with 'inDegrees', this indicates whether rotational values are in degrees (yes) or radians (no).

endheader
time	pelvis_tilt	pelvis_list	pelvis_rotation	pelvis_tx	pelvis_ty	pelvis_tz	hip_flexion_r	hip_adduction_r	hip_rotation_r	knee_angle_r	knee_angle_r_beta	ankle_angle_r	subtalar_angle_r	mtp_angle_r	hip_flexion_l	hip_adduction_l	hip_rotation_l	knee_angle_l	knee_angle_l_beta	ankle_angle_l	subtalar_angle_l	mtp_angle_l	lumbar_extension	lumbar_bending	lumbar_rotation	arm_flex_r	arm_add_r	arm_rot_r	elbow_flex_r	pro_sup_r	wrist_flex_r	wrist_dev_r	arm_flex_l	arm_add_l	arm_rot_l	elbow_flex_l	pro_sup_l	wrist_flex_l	wrist_dev_l
      4.97500000	     -1.47893473	     -1.96879216	      0.22290149	     -0.35649397	      0.93453312	     -0.99959067	     56.93976843	     -4.52230783	      2.69880445	     38.94257258	      0.67967611	      9.40986508	      0.00000000	      0.00000000	     36.68345634	     -2.75084190	     -6.52726971	     62.11675001	      1.08414181	     13.92925413	      0.00000000	      0.00000000	    -15.39774069	     -2.78497372	     -5.43684764	     89.90228379	     -2.41313342	     45.80237848	     44.29405154	     82.48916608	      0.00000000	      0.00000000	     89.93640510	    -13.66874462	     47.00698883	     47.38788694	     87.01530786	      0.00000000	      0.00000000
      4.98000000	     -1.34334980	     -1.90994435	      0.23419807	     -0.35599112	      0.93565379	     -0.99964001	     56.52436415	     -4.54256033	      2.82450324	     38.88383509	      0.67865095	      9.38756212	      0.00000000	      0.00000000	     36.38788563	     -2.66302574	     -6.52877200	     61.89549572	      1.08028019	     13.83190885	      0.00000000	      0.00000000	    -15.50063719	     -2.86206674	     -5.47078951	     89.90258374	     -2.44981862	     46.07484383	     44.32382845	     81.72187204	      0.00000000	      0.00000000	     89.93649615	    -13.72360237	     47.09450562	     47.41424298	     87.12408092	      0.00000000	      0.00000000
      4.98500000	     -1.41315612	     -1.90653496	      0.23816293	     -0.35582897	      0.93641651	     -0.99957638	     56.39666049	     -4.52922575	      2.81526895	     38.90868107	      0.67908459	      9.38789064	      0.00000000	      0.00000000	     36.40841430	     -2.66120680	     -6.53032327	     61.83245128	      1.07917986	     13.81718501	      0.00000000	      0.00000000	    -15.40196308	     -2.86743858	     -5.45712315	     89.90230685	     -2.43889692	     46.04866324	     44.34277103	     81.73236968	      0.00000000	      0.00000000	     89.93651562	    -13.72719907	     47.05440575	     47.43006102	     87.11341468	      0.00000000	      0.00000000
      4.99000000	     -1.44037668	     -1.96958622	      0.30705311	     -0.35556074	      0.93740630	     -0.99961541	     56.16583688	     -4.50594416	      2.82075236	     38.88213048	      0.67862120	      9.35687978	      0.00000000	      0.00000000	     36.25421951	     -2.65728402	     -6.44379042	     61.42820157	      1.07212437	     13.67288443	      0.00000000	      0.00000000	    -15.33182535	     -2.78420829	     -5.49854046	     89.90187398	     -2.44381581	     46.09079052	     44.32806052	     81.82521106	      0.00000000	      0.00000000	     89.93588480	    -13.73059235	     47.16516288	     47.36665867	     87.07228605	      0.00000000	      0.00000000
      4.99500000	     -1.49319988	     -1.82494725	      0.29493995	     -0.35510865	      0.93817650	     -0.99970783	     56.01384049	     -4.58011880	      2.90413411	     38.90291984	      0.67898404	      9.43118521	      0.00000000	      0.00000000	     36.15113094	     -2.43888526	     -6.37927227	     61.18411376	      1.06786424	     13.56553953	      0.00000000	      0.00000000	    -15.23467680	     -2.92750346	     -5.47423066	     89.90211660	     -2.55038553	     46.35979825	     44.45148634	     81.20711093	      0.00000000	      0.00000000	     89.93606742	    -13.72231998	     47.31381971	     47.35853563	     86.72220290	      0.00000000	      0.00000000
      5.00000000	     -1.55038519	     -1.84499501	      0.30686088	     -0.35494610	      0.93897247	     -0.99966563	     55.85783958	     -4.57209303	      2.91077437	     38.93250475	      0.67950039	      9.42084840	      0.00000000	      0.00000000	     36.16707006	     -2.46350953	     -6.39856968	     61.12067982	      1.06675710	     13.55098257	      0.00000000	      0.00000000	    -15.14618912	     -2.91994665	     -5.47580250	     89.90161241	     -2.54532203	     46.33012178	     44.45656770	     81.22119685	      0.00000000	      0.00000000	     89.93588538	    -13.72363399	     47.28259846	     47.36956218	     86.72421559	      0.00000000	      0.00000000
      5.00500000	     -1.56896294	     -1.91125025	      0.32980922	     -0.35464548	      0.93995069	     -0.99965371	     55.62663636	     -4.49381464	      2.96909452	     38.93101281	      0.67947435	      9.40458754	      0.00000000	      0.00000000	     36.00029293	     -2.52358262	     -6.41314496	     60.75228876	      1.06032747	     13.40216761	      0.00000000	      0.00000000	    -15.10382918	     -2.84743393	     -5.47677939	     89.90120894	     -2.53262951	     46.32672416	     44.40236657	     81.31908381	      0.00000000	      0.00000000	     89.93547815	    -13.71817744	     47.35469667	     47.33819086	     86.75698727	      0.00000000	      0.00000000
